<svg width="30" height="30" viewBox="0 0 30 30" fill="none" xmlns="http://www.w3.org/2000/svg">
<path fill-rule="evenodd" clip-rule="evenodd" d="M2.5 2.5C2.16848 2.5 1.85054 2.6317 1.61612 2.86612C1.3817 3.10054 1.25 3.41848 1.25 3.75V21.25C1.25 22.9425 2.37125 24.3725 3.91125 24.84C4.1405 25.5962 4.6028 26.2607 5.23216 26.7386C5.86151 27.2165 6.62575 27.4834 7.41579 27.5011C8.20582 27.5189 8.98127 27.2866 9.63144 26.8374C10.2816 26.3883 10.7733 25.7452 11.0363 25H18.9637C19.2267 25.7452 19.7184 26.3883 20.3686 26.8374C21.0187 27.2866 21.7942 27.5189 22.5842 27.5011C23.3742 27.4834 24.1385 27.2165 24.7678 26.7386C25.3972 26.2607 25.8595 25.5962 26.0887 24.84C26.8588 24.6064 27.5333 24.1312 28.0125 23.4847C28.4918 22.8382 28.7503 22.0547 28.75 21.25V16.25C28.75 15.4292 28.5883 14.6165 28.2742 13.8582C27.9602 13.0999 27.4998 12.4109 26.9194 11.8306C26.339 11.2502 25.6501 10.7898 24.8918 10.4758C24.1335 10.1617 23.3208 10 22.5 10H17.5V3.75C17.5 3.41848 17.3683 3.10054 17.1339 2.86612C16.8995 2.6317 16.5815 2.5 16.25 2.5H2.5ZM18.9637 22.5H17.5V12.5H22.5C23.4946 12.5 24.4484 12.8951 25.1516 13.5983C25.8549 14.3016 26.25 15.2554 26.25 16.25V21.25C26.2499 21.5815 26.1182 21.8994 25.8837 22.1337C25.5642 21.4643 25.0532 20.9047 24.4156 20.5257C23.7779 20.1466 23.0421 19.9653 22.3014 20.0045C21.5606 20.0437 20.8481 20.3017 20.254 20.7459C19.6599 21.1901 19.2109 21.8006 18.9637 22.5ZM6.61625 22.8662C6.73156 22.7469 6.86949 22.6516 7.02199 22.5861C7.1745 22.5206 7.33852 22.4861 7.5045 22.4847C7.67047 22.4832 7.83507 22.5149 7.98869 22.5777C8.14231 22.6406 8.28188 22.7334 8.39924 22.8508C8.51661 22.9681 8.60943 23.1077 8.67228 23.2613C8.73513 23.4149 8.76675 23.5795 8.76531 23.7455C8.76387 23.9115 8.72939 24.0755 8.66388 24.228C8.59836 24.3805 8.50314 24.5184 8.38375 24.6337C8.148 24.8614 7.83224 24.9874 7.5045 24.9846C7.17675 24.9817 6.86324 24.8503 6.63148 24.6185C6.39972 24.3868 6.26825 24.0732 6.26541 23.7455C6.26256 23.4178 6.38855 23.102 6.61625 22.8662ZM21.25 23.75C21.25 23.4185 21.3817 23.1005 21.6161 22.8661C21.8505 22.6317 22.1685 22.5 22.5 22.5C22.8315 22.5 23.1495 22.6317 23.3839 22.8661C23.6183 23.1005 23.75 23.4185 23.75 23.75C23.75 24.0815 23.6183 24.3995 23.3839 24.6339C23.1495 24.8683 22.8315 25 22.5 25C22.1685 25 21.8505 24.8683 21.6161 24.6339C21.3817 24.3995 21.25 24.0815 21.25 23.75Z" fill="white"/>
</svg>
