<svg width="30" height="30" viewBox="0 0 30 30" fill="none" xmlns="http://www.w3.org/2000/svg">
<path d="M7.5 25L9.375 20.3125C9.5625 19.8333 9.86458 19.4529 10.2813 19.1712C10.6979 18.8896 11.1667 18.7492 11.6875 18.75H13.75V13.7188C10.5625 13.6146 7.89042 13.1458 5.73375 12.3125C3.57708 11.4792 2.49917 10.5 2.5 9.375C2.5 8.16667 3.71875 7.13542 6.15625 6.28125C8.59375 5.42708 11.5417 5 15 5C18.4792 5 21.4325 5.42708 23.86 6.28125C26.2875 7.13542 27.5008 8.16667 27.5 9.375C27.5 10.5 26.4217 11.4792 24.265 12.3125C22.1083 13.1458 19.4367 13.6146 16.25 13.7188V18.75H18.3125C18.8125 18.75 19.2762 18.8908 19.7037 19.1725C20.1312 19.4542 20.4383 19.8342 20.625 20.3125L22.5 25H20L18.5 21.25H11.5L10 25H7.5Z" fill="white"/>
</svg>
