<svg width="30" height="30" viewBox="0 0 30 30" fill="none" xmlns="http://www.w3.org/2000/svg">
<path d="M13.5 7.5C13.5 6.17392 12.9732 4.90215 12.0355 3.96447C11.0978 3.02678 9.82608 2.5 8.5 2.5C7.17392 2.5 5.90215 3.02678 4.96447 3.96447C4.02678 4.90215 3.5 6.17392 3.5 7.5C3.5 8.82608 4.02678 10.0979 4.96447 11.0355C5.90215 11.9732 7.17392 12.5 8.5 12.5C9.82608 12.5 11.0978 11.9732 12.0355 11.0355C12.9732 10.0979 13.5 8.82608 13.5 7.5ZM15.8125 9.16667C15.0573 12.5052 12.0677 15 8.5 15C4.35937 15 1 11.6406 1 7.5C1 3.35938 4.35937 0 8.5 0C12.0677 0 15.0573 2.49479 15.8125 5.83333H19.5521C20.0104 5.32292 20.6771 5 21.4167 5H26.8333C28.2135 5 29.3333 6.11979 29.3333 7.5C29.3333 8.88021 28.2135 10 26.8333 10H21.4167C20.6771 10 20.0104 9.67708 19.5521 9.16667H15.8125ZM8.5 4.16667C9.38405 4.16667 10.2319 4.51786 10.857 5.14298C11.4821 5.7681 11.8333 6.61595 11.8333 7.5C11.8333 8.38406 11.4821 9.2319 10.857 9.85702C10.2319 10.4821 9.38405 10.8333 8.5 10.8333C7.61594 10.8333 6.7681 10.4821 6.14298 9.85702C5.51785 9.2319 5.16667 8.38406 5.16667 7.5C5.16667 6.61595 5.51785 5.7681 6.14298 5.14298C6.7681 4.51786 7.61594 4.16667 8.5 4.16667ZM21.8333 12.5C22.526 12.5 23.0833 13.0573 23.0833 13.75V14.1667H28.0833C28.776 14.1667 29.3333 14.724 29.3333 15.4167C29.3333 16.1094 28.776 16.6667 28.0833 16.6667H15.5833C14.8906 16.6667 14.3333 16.1094 14.3333 15.4167C14.3333 14.724 14.8906 14.1667 15.5833 14.1667H20.5833V13.75C20.5833 13.0573 21.1406 12.5 21.8333 12.5ZM16 24.1667V18.3333H27.6667V24.1667C27.6667 25.5469 26.5469 26.6667 25.1667 26.6667H18.5C17.1198 26.6667 16 25.5469 16 24.1667ZM3.5 16.6667H10.1667C11.5469 16.6667 12.6667 17.7865 12.6667 19.1667C12.6667 20.5469 11.5469 21.6667 10.1667 21.6667H9.33333C9.33333 22.5885 8.58854 23.3333 7.66666 23.3333H4.33333C3.41146 23.3333 2.66667 22.5885 2.66667 21.6667V17.5C2.66667 17.0417 3.04167 16.6667 3.5 16.6667ZM10.1667 20C10.625 20 11 19.625 11 19.1667C11 18.7083 10.625 18.3333 10.1667 18.3333H9.33333V20H10.1667ZM2.25 24.1667H11.4167C12.1094 24.1667 12.6667 24.724 12.6667 25.4167C12.6667 26.1094 12.1094 26.6667 11.4167 26.6667H2.25C1.55729 26.6667 1 26.1094 1 25.4167C1 24.724 1.55729 24.1667 2.25 24.1667Z" fill="white"/>
</svg>
