<svg width="30" height="30" viewBox="0 0 30 30" fill="none" xmlns="http://www.w3.org/2000/svg">
<path fill-rule="evenodd" clip-rule="evenodd" d="M10 7.5C10 6.83696 10.2634 6.20107 10.7322 5.73223C11.2011 5.26339 11.837 5 12.5 5H25C25.663 5 26.2989 5.26339 26.7678 5.73223C27.2366 6.20107 27.5 6.83696 27.5 7.5V16.25C27.5 16.913 27.2366 17.5489 26.7678 18.0178C26.2989 18.4866 25.663 18.75 25 18.75H18.75L11.4163 24.25C10.7671 24.7368 9.97764 25 9.16625 25H3.75C3.41848 25 3.10054 24.8683 2.86612 24.6339C2.6317 24.3995 2.5 24.0815 2.5 23.75C2.5 23.4185 2.6317 23.1005 2.86612 22.8661C3.10054 22.6317 3.41848 22.5 3.75 22.5H9.16625C9.43671 22.5 9.69988 22.4123 9.91625 22.25L18.0975 16.115L17.74 15.7575C17.305 15.3222 16.7248 15.0627 16.1104 15.0286C15.4959 14.9944 14.8905 15.1881 14.41 15.5725L10.7812 18.4762C10.653 18.5788 10.5059 18.6552 10.3482 18.7009C10.1905 18.7466 10.0253 18.7608 9.86211 18.7427C9.69892 18.7246 9.54088 18.6746 9.39703 18.5954C9.25319 18.5162 9.12635 18.4095 9.02375 18.2812C8.92115 18.153 8.84482 18.0059 8.79909 17.8482C8.75337 17.6905 8.73915 17.5253 8.75726 17.3621C8.77537 17.1989 8.82544 17.0409 8.90462 16.897C8.98381 16.7532 9.09055 16.6263 9.21875 16.5238L10 15.8988V11.3412C9.30688 11.497 8.67226 11.8464 8.17 12.3487L4.63375 15.8837C4.398 16.1114 4.08224 16.2374 3.7545 16.2346C3.42675 16.2317 3.11324 16.1003 2.88148 15.8685C2.64972 15.6368 2.51826 15.3232 2.51541 14.9955C2.51256 14.6678 2.63855 14.352 2.86625 14.1163L6.4 10.58C7.37221 9.60862 8.63748 8.98477 10 8.805V7.5ZM12.5 11.25V10C12.5 9.66848 12.3683 9.35054 12.1339 9.11612C11.8995 8.8817 11.5815 8.75 11.25 8.75H25C25.3315 8.75 25.6495 8.8817 25.8839 9.11612C26.1183 9.35054 26.25 9.66848 26.25 10C26.25 10.3315 26.1183 10.6495 25.8839 10.8839C25.6495 11.1183 25.3315 11.25 25 11.25H12.5Z" fill="white"/>
</svg>
